<svg xmlns="http://www.w3.org/2000/svg" width="96" height="96" viewBox="0 0 96 96" fill="none" stroke="#c9a85c" stroke-width="1">
  <!-- 8-point star (khatam) lattice -->
  <g transform="translate(48 48)">
    <rect x="-22" y="-22" width="44" height="44"/>
    <rect x="-22" y="-22" width="44" height="44" transform="rotate(45)"/>
    <circle r="6"/>
  </g>
  <g transform="translate(0 0)"><rect x="-22" y="-22" width="44" height="44"/><rect x="-22" y="-22" width="44" height="44" transform="rotate(45)"/></g>
  <g transform="translate(96 0)"><rect x="-22" y="-22" width="44" height="44"/><rect x="-22" y="-22" width="44" height="44" transform="rotate(45)"/></g>
  <g transform="translate(0 96)"><rect x="-22" y="-22" width="44" height="44"/><rect x="-22" y="-22" width="44" height="44" transform="rotate(45)"/></g>
  <g transform="translate(96 96)"><rect x="-22" y="-22" width="44" height="44"/><rect x="-22" y="-22" width="44" height="44" transform="rotate(45)"/></g>
  <path d="M48 0 L48 26 M48 70 L48 96 M0 48 L26 48 M70 48 L96 48" stroke-opacity=".6"/>
</svg>
